<svg width="129" height="69" viewBox="0 0 129 69" fill="none" xmlns="http://www.w3.org/2000/svg">
<path opacity="0.5" d="M0 21.2541C0 11.2885 0 6.30574 3.14705 3.34438C6.29409 0.383016 11.2677 0.685673 21.2148 1.29099L115.031 7V7C122.931 8.14828 128.791 14.9213 128.791 22.9043V51.1025C128.791 51.5892 128.791 51.8326 128.778 52.0429C128.58 55.332 126.115 58.0376 122.858 58.54C122.65 58.5722 122.408 58.5947 121.923 58.6399L26.2265 67.5564C13.966 68.6987 7.8358 69.2699 3.9179 65.7001C0 62.1303 0 55.9735 0 43.6599L0 21.2541Z" fill="url(#paint0_linear_1_4)"/>
<defs>
<linearGradient id="paint0_linear_1_4" x1="-23.5562" y1="20.5353" x2="146.048" y2="63.9004" gradientUnits="userSpaceOnUse">
<stop stop-color="#662D8C"/>
<stop offset="1" stop-color="#ED1E79"/>
</linearGradient>
</defs>
</svg>
